# xmcd
# 
# Track frame offsets:
#     150
#     19493
#     39533
#     53558
# 
# Disc length: 903
# 
# Revision: 0
# Processed by: cddbd v1.5.2PL0 Copyright (c) Steve Scherf et al.
# Submitted via: fre:ac v1.0.17
# 
DISCID=2c038504
DTITLE=Various Artist - Silent Front vs Tiger Force
DYEAR=0
DGENRE=Alternative
TTITLE0=Silent Front - I Much Prefer Hating You
TTITLE1=Silent Front - Self Seller Event
TTITLE2=Tiger Force - Death Cola Music
TTITLE3=Tiger Force - Kill The Wonderboy
EXTD=
EXTT0=
EXTT1=
EXTT2=
EXTT3=
PLAYORDER=
